<svg width="73" height="16" viewBox="0 0 73 16" fill="none" xmlns="http://www.w3.org/2000/svg">
<path d="M34.3459 0.666667C33.7342 0.666667 33.2347 1.13844 33.2347 1.71635V9.25287C33.2347 12.3076 31.1122 13.487 29.3268 13.9352C28.7275 14.0885 28.3904 14.6546 28.5402 15.2207C28.715 15.8812 29.4142 16.0935 29.9011 15.9638C31.6116 15.5274 35.4571 14.0413 35.4571 9.25287V1.71635C35.4571 1.13844 34.9577 0.666667 34.3459 0.666667ZM10.4137 0.608027C10.1124 -0.0545298 8.9556 -0.338483 8.41334 0.608027L5.76228 5.68369C-0.937666 3.60136 -1.87759 9.49339 3.37633 12.4986C4.11139 12.9245 4.79826 12.4276 4.96696 12.0608L6.8468 8.46406C9.89552 9.68269 14.2095 12.4631 14.2336 12.4749C15.4145 13.1493 16.3424 11.8952 15.8604 11.0315L10.4137 0.608027ZM3.56913 9.87199C2.66536 9.39874 0.411962 6.45273 4.70185 7.69502L3.56913 9.87199ZM7.88312 6.47639L9.41351 3.54221L12.0164 8.53505C11.221 8.08546 8.9074 6.86682 7.88312 6.47639ZM22.9467 0.666667H19.2471C18.5994 0.666667 18.0762 1.16916 18.0762 1.79129V11.542C18.0762 12.1642 18.5994 12.6667 19.2471 12.6667H22.9467C26.3972 12.6667 29.2 9.97474 29.2 6.66068C29.2 3.35859 26.3972 0.666667 22.9467 0.666667ZM22.9467 10.4174H20.418V2.92788H22.9467C25.1018 2.92788 26.8457 4.61482 26.8457 6.67265C26.8457 8.74244 25.1018 10.4174 22.9467 10.4174ZM46.9782 1.78746V7.39444C46.9782 9.18771 45.7044 10.4071 43.8 10.4071C41.9082 10.4071 40.6218 9.19967 40.6218 7.39444V1.78746C40.6218 0.293068 38.2381 0.293068 38.2381 1.78746V7.39444C38.2381 10.4311 40.5839 12.6667 43.8 12.6667C47.0161 12.6667 49.3619 10.443 49.3619 7.39444V1.78746C49.3619 0.293068 46.9782 0.293068 46.9782 1.78746ZM71.8082 0.666667H63.068C61.4789 0.666667 61.4789 2.92619 63.068 2.92619H66.2463V11.5459C66.2463 13.0403 68.6299 13.0403 68.6299 11.5459V2.92619H71.8082C73.3973 2.92619 73.3973 0.666667 71.8082 0.666667ZM54.1868 3.75066C54.287 2.72543 56.3908 2.2301 58.1816 3.60091C59.3086 4.46486 60.9365 3.19773 59.822 2.01123C57.856 -0.0853006 51.8075 0.0529321 51.8075 3.98105C51.8075 8.05891 58.7325 7.20648 58.0313 9.57947C57.7057 10.6853 54.9758 11.0424 53.6859 9.4182C52.5965 8.04739 50.7682 9.4182 51.7074 10.6393C54.4122 14.1872 60.4857 12.6667 60.4857 9.24541C60.4732 5.15602 53.9614 5.9163 54.1868 3.75066Z" fill="white"/>
</svg>
