<svg width="72" height="21" viewBox="0 0 72 21" fill="none" xmlns="http://www.w3.org/2000/svg">
<path fill-rule="evenodd" clip-rule="evenodd" d="M9.53952 0.649902H5.92108L0 15.4365H3.12502L4.27634 12.5117H11.0198L12.1711 15.4365H15.2961L9.53952 0.649902ZM10.1974 10.3993H4.93419L7.73026 3.73721L10.1974 10.3993Z" fill="white"/>
<path fill-rule="evenodd" clip-rule="evenodd" d="M48.1909 9.91205C48.1909 6.49976 45.7238 3.8999 42.1053 3.8999C38.4869 3.8999 36.0198 6.49976 36.0198 9.91205C36.0198 13.3243 38.4869 15.9242 42.1053 15.9242C45.5593 15.9242 48.1909 13.3243 48.1909 9.91205ZM45.2304 9.91208C45.2304 11.6995 44.0791 13.1619 42.1054 13.1619C40.1317 13.1619 38.9804 11.6995 38.9804 9.91208C38.9804 8.12466 40.1317 6.66226 42.1054 6.66226C43.9146 6.66226 45.2304 8.12466 45.2304 9.91208Z" fill="white"/>
<path fill-rule="evenodd" clip-rule="evenodd" d="M55.3511 2.56029C55.9713 2.56029 56.7465 2.88032 57.2116 3.20036V0.320036C56.5914 0.160018 55.8162 0 55.041 0C52.4052 0 51.3199 1.92022 51.3199 4.00045V4.80054H49.3043V7.20081H51.3199V15.5217H54.2658V7.04079H57.5217V4.64052H54.2658V4.00045C54.1107 3.04034 54.4208 2.56029 55.3511 2.56029" fill="white"/>
<path fill-rule="evenodd" clip-rule="evenodd" d="M34.1478 3.65222C33.8232 3.65222 33.4985 3.65222 33.1739 3.81708V3.81708V3.81708V3.81708C33.0116 3.81708 32.0377 4.14679 31.3884 4.64135V3.81708H28.3043V15.5218H31.3884V10.5761V10.5761V9.25729C31.3884 7.60874 32.2 6.45476 33.6608 6.45476C34.6348 6.45476 35.4464 6.78447 35.6087 6.94932V3.98193C35.284 3.81708 34.7971 3.65222 34.1478 3.65222" fill="white"/>
<path fill-rule="evenodd" clip-rule="evenodd" d="M68.1037 4.56519L65.3178 12.2795L61.8763 4.56519H58.4348L63.679 15.8012L63.3512 16.8074C62.8596 17.8136 62.5318 18.3167 61.3846 18.3167C60.0736 18.3167 59.7459 17.8136 59.4181 17.4782V20.4969C59.9097 20.6646 60.7291 21 61.3846 21C63.8428 21 65.3178 19.6584 66.4649 16.6397L71.2174 4.56519L68.1037 4.56519V4.56519Z" fill="white"/>
<path fill-rule="evenodd" clip-rule="evenodd" d="M23.8487 5.36215V4.22473H26.6448V14.6241C26.6448 18.6863 24.3422 20.6362 20.8882 20.6362C19.4079 20.6362 18.4211 20.3112 17.5987 19.9863V17.2239C18.4211 17.7114 19.4079 18.0364 21.0527 18.0364C22.5329 18.0364 23.8487 17.3864 23.8487 15.4366V14.4616C23.0264 15.1116 21.875 15.599 20.3948 15.599C17.2698 15.599 15.1316 12.9992 15.1316 9.9119C15.1316 6.82458 17.2698 4.22473 20.3948 4.22473C21.875 4.22473 23.0264 4.54971 23.8487 5.36215ZM21.2172 12.8367C22.3685 12.8367 23.1909 12.3492 23.8488 11.6992V8.12445C23.1909 7.47449 22.2041 6.98703 21.2172 6.98703C19.2435 6.98703 18.0922 8.12445 18.0922 9.91187C18.0922 11.6992 19.408 12.8367 21.2172 12.8367Z" fill="white"/>
</svg>
