<svg width="73" height="30" viewBox="0 0 73 30" fill="none" xmlns="http://www.w3.org/2000/svg">
<path fill-rule="evenodd" clip-rule="evenodd" d="M33.1218 9.03669C31.8204 7.74542 30.0505 7.01959 28.2045 7.02015H27.8636C25.3185 7.15197 23.0494 8.64371 21.9468 10.91C21.8858 11.0379 21.8288 11.1658 21.7756 11.2936C21.4363 12.1147 21.2603 12.9925 21.2571 13.8792V17.3982C20.0487 17.1402 19.1734 16.1044 19.1336 14.8855V3.50496C19.1317 2.12196 18.3112 0.867416 17.0347 0.295384C16.575 0.101072 16.0802 0.000591528 15.5801 0V14.6426C15.583 17.8207 18.045 20.4709 21.2545 20.751V30C22.2087 30.0027 23.1247 29.6305 23.8 28.9655C24.4753 28.3006 24.8543 27.3978 24.8533 26.4566V20.7497H28.2058C31.0212 20.7534 33.5608 19.0816 34.6376 16.5158C35.7145 13.95 35.116 10.9969 33.1218 9.03669ZM29.4542 17.1463C29.057 17.3013 28.633 17.3786 28.2058 17.3739H24.852V13.9751C24.8599 13.5414 24.9556 13.1136 25.1333 12.7168C25.3027 12.3404 25.5404 11.9976 25.8347 11.7054C26.3755 11.171 27.0846 10.8341 27.8454 10.7502C28.2476 10.7073 28.6543 10.7368 29.0459 10.8371C29.4076 10.9304 29.7514 11.0816 30.0636 11.2847C30.2511 11.4069 30.4249 11.5483 30.5821 11.7067C32.3725 13.447 31.5687 16.3215 29.4542 17.1463ZM13.9066 13.8817C13.9068 10.2262 11.005 7.21065 7.30395 7.02015H6.96041C3.11628 7.02015 0 10.0939 0 13.8856C0 17.6773 3.11628 20.751 6.96041 20.751L13.9053 20.7433L13.9066 13.8817ZM10.3207 17.3688H6.96041C3.9683 17.3778 2.47873 13.7513 4.5815 11.7015C5.10554 11.1824 5.78953 10.8495 6.52611 10.7553C6.93437 10.7035 7.34881 10.7265 7.74862 10.8231C8.1064 10.9108 8.44744 11.055 8.75852 11.2501C8.96279 11.3803 9.15267 11.5311 9.32505 11.7003C9.95766 12.3212 10.3136 13.1651 10.3142 14.0454V17.3701L10.3207 17.3688ZM48.7434 8.99833C47.4297 7.70225 45.6452 6.97802 43.7872 6.98691C42.6063 6.98822 41.4456 7.28897 40.4166 7.86027V3.53309C40.4158 1.58996 38.8201 0.0143296 36.8501 0.0115085V13.5659C36.8501 13.6746 36.8411 13.7858 36.8411 13.8971L36.8488 20.7548H40.4191V13.9508C40.4918 12.1522 41.9844 10.7273 43.8092 10.7144C45.6722 10.7207 47.1792 12.2117 47.1799 14.0493V20.7472H50.7749V13.8536C50.7815 12.0327 50.0501 10.2846 48.7434 8.99833ZM73 13.8485V20.7459H69.4556V14.0288C69.4556 12.1902 67.9445 10.6997 66.0804 10.6997C64.2164 10.6997 62.7052 12.1902 62.7052 14.0288V20.7459H59.0999V13.8485C59.0999 12.0304 59.8322 10.2867 61.1355 9.00114C62.4389 7.71554 64.2067 6.9933 66.05 6.9933C69.8881 6.99401 72.9993 10.0628 73 13.8485ZM56.7109 20.7472H53.1406V6.99074C55.1124 6.99074 56.7109 8.56741 56.7109 10.5123V20.7472Z" fill="white"/>
<path fill-rule="evenodd" clip-rule="evenodd" d="M33.1218 9.03669C31.8204 7.74542 30.0505 7.01959 28.2045 7.02015H27.8636C25.3185 7.15197 23.0494 8.64371 21.9468 10.91C21.8858 11.0379 21.8288 11.1658 21.7756 11.2936C21.4363 12.1147 21.2603 12.9925 21.2571 13.8792V17.3982C20.0487 17.1402 19.1734 16.1044 19.1336 14.8855V3.50496C19.1317 2.12196 18.3112 0.867416 17.0347 0.295384C16.575 0.101072 16.0802 0.000591528 15.5801 0V14.6426C15.583 17.8207 18.045 20.4709 21.2545 20.751V30C22.2087 30.0027 23.1247 29.6305 23.8 28.9655C24.4753 28.3006 24.8543 27.3978 24.8533 26.4566V20.7497H28.2058C31.0212 20.7534 33.5608 19.0816 34.6376 16.5158C35.7145 13.95 35.116 10.9969 33.1218 9.03669ZM29.4542 17.1463C29.057 17.3013 28.633 17.3786 28.2058 17.3739H24.852V13.9751C24.8599 13.5414 24.9556 13.1136 25.1333 12.7168C25.3027 12.3404 25.5404 11.9976 25.8347 11.7054C26.3755 11.171 27.0846 10.8341 27.8454 10.7502C28.2476 10.7073 28.6543 10.7368 29.0459 10.8371C29.4076 10.9304 29.7514 11.0816 30.0636 11.2847C30.2511 11.4069 30.4249 11.5483 30.5821 11.7067C32.3725 13.447 31.5687 16.3215 29.4542 17.1463ZM13.9066 13.8817C13.9068 10.2262 11.005 7.21065 7.30395 7.02015H6.96041C3.11628 7.02015 0 10.0939 0 13.8856C0 17.6773 3.11628 20.751 6.96041 20.751L13.9053 20.7433L13.9066 13.8817ZM10.3207 17.3688H6.96041C3.9683 17.3778 2.47873 13.7513 4.5815 11.7015C5.10554 11.1824 5.78953 10.8495 6.52611 10.7553C6.93437 10.7035 7.34881 10.7265 7.74862 10.8231C8.1064 10.9108 8.44744 11.055 8.75852 11.2501C8.96279 11.3803 9.15267 11.5311 9.32505 11.7003C9.95766 12.3212 10.3136 13.1651 10.3142 14.0454V17.3701L10.3207 17.3688ZM48.7434 8.99833C47.4297 7.70225 45.6452 6.97802 43.7872 6.98691C42.6063 6.98822 41.4456 7.28897 40.4166 7.86027V3.53309C40.4158 1.58996 38.8201 0.0143296 36.8501 0.0115085V13.5659C36.8501 13.6746 36.8411 13.7858 36.8411 13.8971L36.8488 20.7548H40.4191V13.9508C40.4918 12.1522 41.9844 10.7273 43.8092 10.7144C45.6722 10.7207 47.1792 12.2117 47.1799 14.0493V20.7472H50.7749V13.8536C50.7815 12.0327 50.0501 10.2846 48.7434 8.99833ZM73 13.8485V20.7459H69.4556V14.0288C69.4556 12.1902 67.9445 10.6997 66.0804 10.6997C64.2164 10.6997 62.7052 12.1902 62.7052 14.0288V20.7459H59.0999V13.8485C59.0999 12.0304 59.8322 10.2867 61.1355 9.00114C62.4389 7.71554 64.2067 6.9933 66.05 6.9933C69.8881 6.99401 72.9993 10.0628 73 13.8485ZM56.7109 20.7472H53.1406V6.99074C55.1124 6.99074 56.7109 8.56741 56.7109 10.5123V20.7472Z" fill="white"/>
</svg>
