<svg width="71" height="8" viewBox="0 0 71 8" fill="none" xmlns="http://www.w3.org/2000/svg">
<path d="M17.7388 1.42843C17.2931 0.905143 16.6692 0.667283 15.9115 0.667283C15.2429 0.667283 14.7527 0.809999 14.4852 1.04786C14.1732 1.28572 14.0395 1.66629 14.0395 2.09444C14.0395 2.3323 14.0841 2.47502 14.1287 2.6653C14.2178 2.80802 14.307 2.95074 14.4852 3.04588C14.6635 3.14102 14.8418 3.23617 15.1092 3.33131C15.3321 3.42645 15.6441 3.47403 16.0006 3.56917C16.3572 3.66431 16.6692 3.71189 16.9812 3.80703C17.2931 3.90217 17.516 3.99732 17.7388 4.14003C17.9617 4.28275 18.0954 4.47304 18.2291 4.66332C18.3183 4.85361 18.4074 5.13904 18.4074 5.42447C18.4074 5.70991 18.3628 5.99534 18.2291 6.2332C18.0954 6.47106 17.9617 6.66134 17.7388 6.80406C17.516 6.94678 17.2931 7.08949 16.9812 7.13706C16.6692 7.23221 16.3572 7.23221 16.0006 7.23221C14.9309 7.23221 14.0841 6.8992 13.3264 6.18563L13.5938 5.80505C13.8613 6.09048 14.2178 6.32834 14.6189 6.51863C15.0201 6.70892 15.5103 6.80406 16.0006 6.80406C16.58 6.80406 17.0257 6.70892 17.3823 6.47106C17.6943 6.2332 17.8726 5.90019 17.8726 5.47205C17.8726 5.23419 17.828 5.0439 17.7388 4.90118C17.6497 4.75847 17.516 4.61575 17.3377 4.47304C17.1594 4.37789 16.9366 4.28275 16.6692 4.1876C16.4017 4.09246 16.0898 4.04489 15.7332 3.94975C15.3766 3.8546 15.0646 3.80703 14.7972 3.71189C14.5298 3.61674 14.307 3.5216 14.1287 3.37888C13.9504 3.23617 13.8167 3.09345 13.7275 2.90316C13.6384 2.71288 13.5938 2.47502 13.5938 2.18958C13.5938 1.85658 13.6384 1.61872 13.7721 1.38086C13.9058 1.143 14.0395 0.952715 14.2624 0.762427C14.4852 0.619711 14.7081 0.476995 15.0201 0.381851C15.3321 0.286708 15.6441 0.239136 16.0006 0.239136C16.4463 0.239136 16.8029 0.286708 17.1594 0.429423C17.516 0.572139 17.828 0.762427 18.0954 1.04786L17.7388 1.42843Z" fill="white"/>
<path d="M28.9705 0.762096H26.5191V7.18431H26.0289V0.762096H23.5775V0.286377H28.9705V0.762096Z" fill="white"/>
<path d="M34.5862 0.286377L36.9484 4.09213L39.2661 0.286377H39.8009L37.1713 4.56785V7.18431H36.681V4.56785L34.0514 0.286377H34.5862Z" fill="white"/>
<path d="M45.5951 7.18431V0.286377H46.0854V6.75616H50.0967V7.18431H45.5951Z" fill="white"/>
<path d="M60.7042 7.18431L58.1637 0.904812L55.6232 7.18431H55.0884L57.9408 0.286377H58.3865L61.1944 7.18431H60.7042Z" fill="white"/>
<path d="M68.5041 4.1397H68.9498C69.1726 4.1397 69.3509 4.09213 69.5292 3.99699C69.7075 3.90184 69.8412 3.75913 69.9749 3.61641C70.1086 3.4737 70.1977 3.28341 70.2869 3.09312C70.3314 2.90283 70.376 2.66497 70.376 2.47469C70.376 2.23683 70.3314 2.04654 70.2423 1.85625C70.1532 1.66596 70.064 1.47567 69.9303 1.33296C69.7966 1.19024 69.6183 1.04753 69.44 0.952384C69.2618 0.85724 69.0389 0.809668 68.8606 0.809668H66.543V7.23188H66.0973V0.286377H68.9052C69.1726 0.286377 69.44 0.333949 69.7074 0.476665C69.9303 0.61938 70.1532 0.762096 70.3314 0.952384C70.5097 1.14267 70.6434 1.38053 70.7326 1.66596C70.8217 1.90382 70.8663 2.18925 70.8663 2.42711C70.8663 2.66497 70.8217 2.9504 70.7771 3.14069C70.688 3.37855 70.5989 3.61641 70.4651 3.75913C70.3314 3.94941 70.1532 4.09213 69.9749 4.23485C69.7966 4.37756 69.5737 4.42513 69.3063 4.47271L71 7.13673H70.4206L68.5041 4.1397Z" fill="white"/>
<path d="M4.23442 7.51765C2.67447 7.51765 1.42651 6.2332 1.42651 4.66333H1.91678C1.91678 5.94777 2.94189 7.04193 4.23442 7.04193C5.52695 7.04193 6.55205 5.99534 6.55205 4.66333H7.04232C7.04232 6.2332 5.79436 7.51765 4.23442 7.51765Z" fill="white"/>
<path d="M7.04205 2.80802V2.99831L0.17828 5.47205L0 4.99633L6.55178 2.66531C6.46264 1.42844 5.4821 0.477 4.23414 0.477C2.94161 0.477 1.91651 1.52358 1.91651 2.8556H1.42624C1.42624 1.28572 2.67419 0.00128027 4.23414 0.00128027C5.79409 -0.0462917 7.04205 1.23815 7.04205 2.80802Z" fill="white"/>
</svg>
